<svg xmlns="http://www.w3.org/2000/svg" xmlns:xlink="http://www.w3.org/1999/xlink" width="100" zoomAndPan="magnify" viewBox="0 0 75 74.999997" height="100" preserveAspectRatio="xMidYMid meet" version="1.0"><defs><clipPath id="5170116cc4"><path d="M 14.148438 6 L 60 6 L 60 69 L 14.148438 69 Z M 14.148438 6 " clip-rule="nonzero"/></clipPath></defs><rect x="-7.5" width="90" fill="#ffffff" y="-7.5" height="89.999996" fill-opacity="1"/><rect x="-7.5" width="90" fill="#ffffff" y="-7.5" height="89.999996" fill-opacity="1"/><g clip-path="url(#5170116cc4)"><path fill="#004aad" d="M 55.789062 39.511719 C 55.785156 38.695312 55.9375 37.910156 56.25 37.15625 C 56.558594 36.402344 57.003906 35.734375 57.582031 35.160156 C 57.964844 34.777344 58.304688 34.363281 58.601562 33.914062 C 58.898438 33.46875 59.152344 32.996094 59.359375 32.5 C 59.5625 32 59.71875 31.488281 59.824219 30.960938 C 59.929688 30.433594 59.980469 29.898438 59.980469 29.363281 C 59.980469 28.824219 59.929688 28.292969 59.824219 27.761719 C 59.71875 27.234375 59.5625 26.722656 59.359375 26.226562 C 59.152344 25.730469 58.898438 25.257812 58.601562 24.808594 C 58.304688 24.359375 57.964844 23.945312 57.582031 23.566406 C 57.003906 22.992188 56.558594 22.324219 56.246094 21.570312 C 55.933594 20.816406 55.78125 20.027344 55.789062 19.210938 C 55.785156 18.675781 55.730469 18.140625 55.621094 17.613281 C 55.515625 17.089844 55.355469 16.578125 55.148438 16.082031 C 54.941406 15.585938 54.6875 15.113281 54.386719 14.667969 C 54.085938 14.222656 53.746094 13.8125 53.363281 13.433594 C 52.984375 13.054688 52.566406 12.714844 52.121094 12.417969 C 51.671875 12.121094 51.199219 11.871094 50.703125 11.664062 C 50.207031 11.460938 49.695312 11.304688 49.167969 11.203125 C 48.640625 11.097656 48.105469 11.046875 47.570312 11.046875 C 46.75 11.054688 45.964844 10.902344 45.210938 10.589844 C 44.453125 10.277344 43.789062 9.832031 43.214844 9.25 C 42.832031 8.871094 42.417969 8.53125 41.972656 8.234375 C 41.523438 7.933594 41.050781 7.683594 40.554688 7.476562 C 40.058594 7.273438 39.542969 7.117188 39.015625 7.011719 C 38.488281 6.90625 37.957031 6.855469 37.417969 6.855469 C 36.878906 6.855469 36.347656 6.90625 35.820312 7.011719 C 35.292969 7.117188 34.777344 7.273438 34.28125 7.476562 C 33.785156 7.683594 33.3125 7.933594 32.863281 8.234375 C 32.417969 8.53125 32.003906 8.871094 31.621094 9.25 C 31.046875 9.832031 30.378906 10.277344 29.625 10.585938 C 28.871094 10.898438 28.085938 11.050781 27.265625 11.046875 C 26.730469 11.046875 26.195312 11.101562 25.667969 11.207031 C 25.140625 11.3125 24.628906 11.46875 24.132812 11.675781 C 23.636719 11.878906 23.164062 12.132812 22.714844 12.433594 C 22.269531 12.730469 21.855469 13.070312 21.472656 13.453125 C 21.09375 13.832031 20.753906 14.246094 20.457031 14.691406 C 20.15625 15.140625 19.902344 15.613281 19.695312 16.109375 C 19.492188 16.605469 19.335938 17.117188 19.230469 17.644531 C 19.125 18.171875 19.070312 18.707031 19.070312 19.242188 C 19.074219 20.0625 18.921875 20.847656 18.609375 21.601562 C 18.296875 22.355469 17.851562 23.023438 17.273438 23.597656 C 16.898438 23.980469 16.558594 24.394531 16.265625 24.839844 C 15.96875 25.289062 15.71875 25.761719 15.515625 26.257812 C 15.3125 26.753906 15.160156 27.265625 15.058594 27.792969 C 14.953125 28.320312 14.90625 28.851562 14.90625 29.386719 C 14.910156 29.925781 14.960938 30.457031 15.070312 30.980469 C 15.175781 31.507812 15.332031 32.015625 15.539062 32.511719 C 15.746094 33.007812 16 33.476562 16.296875 33.921875 C 16.597656 34.367188 16.9375 34.78125 17.316406 35.160156 C 17.894531 35.738281 18.339844 36.402344 18.648438 37.15625 C 18.960938 37.910156 19.117188 38.695312 19.113281 39.511719 C 19.113281 39.988281 19.152344 40.457031 19.234375 40.925781 C 19.316406 41.394531 19.4375 41.851562 19.597656 42.296875 C 19.757812 42.746094 19.957031 43.175781 20.191406 43.585938 C 20.425781 44 20.695312 44.386719 21 44.753906 C 21.300781 45.117188 21.632812 45.457031 21.996094 45.761719 C 22.355469 46.070312 22.742188 46.34375 23.152344 46.585938 C 23.558594 46.828125 23.988281 47.03125 24.429688 47.199219 C 24.875 47.363281 25.332031 47.492188 25.796875 47.578125 L 17.535156 67.511719 C 17.476562 67.667969 17.457031 67.828125 17.480469 67.996094 C 17.5 68.160156 17.554688 68.3125 17.648438 68.453125 C 17.742188 68.589844 17.863281 68.699219 18.011719 68.777344 C 18.160156 68.859375 18.316406 68.902344 18.484375 68.902344 L 18.679688 68.902344 L 37.445312 65.257812 L 56.210938 68.902344 L 56.40625 68.902344 C 56.730469 68.894531 56.992188 68.765625 57.203125 68.523438 C 57.332031 68.371094 57.410156 68.199219 57.4375 68 C 57.46875 67.804688 57.4375 67.617188 57.355469 67.433594 L 49.070312 47.578125 C 49.539062 47.492188 49.996094 47.367188 50.441406 47.199219 C 50.886719 47.035156 51.316406 46.832031 51.726562 46.589844 C 52.136719 46.351562 52.523438 46.078125 52.886719 45.769531 C 53.25 45.460938 53.582031 45.125 53.886719 44.761719 C 54.191406 44.394531 54.460938 44.003906 54.699219 43.59375 C 54.9375 43.179688 55.136719 42.75 55.296875 42.304688 C 55.457031 41.855469 55.582031 41.398438 55.664062 40.929688 C 55.746094 40.460938 55.789062 39.988281 55.789062 39.511719 Z M 47.570312 45.675781 C 46.480469 45.671875 45.433594 45.875 44.429688 46.292969 C 43.421875 46.707031 42.535156 47.300781 41.765625 48.070312 C 41.480469 48.355469 41.171875 48.609375 40.835938 48.835938 C 40.5 49.0625 40.144531 49.25 39.769531 49.40625 C 39.394531 49.5625 39.011719 49.679688 38.613281 49.757812 C 38.21875 49.835938 37.816406 49.875 37.414062 49.875 C 37.007812 49.875 36.609375 49.835938 36.210938 49.757812 C 35.8125 49.679688 35.429688 49.5625 35.054688 49.40625 C 34.683594 49.25 34.328125 49.0625 33.992188 48.835938 C 33.65625 48.609375 33.34375 48.355469 33.058594 48.070312 C 32.292969 47.300781 31.40625 46.707031 30.402344 46.292969 C 29.398438 45.875 28.355469 45.671875 27.265625 45.675781 C 26.863281 45.671875 26.46875 45.628906 26.074219 45.546875 C 25.679688 45.464844 25.296875 45.347656 24.925781 45.191406 C 24.554688 45.035156 24.203125 44.84375 23.871094 44.617188 C 23.535156 44.390625 23.230469 44.136719 22.945312 43.851562 C 22.664062 43.566406 22.410156 43.253906 22.1875 42.917969 C 21.964844 42.585938 21.777344 42.230469 21.625 41.859375 C 21.472656 41.488281 21.355469 41.101562 21.277344 40.707031 C 21.199219 40.3125 21.160156 39.914062 21.160156 39.511719 C 21.164062 38.425781 20.957031 37.382812 20.542969 36.378906 C 20.128906 35.375 19.535156 34.488281 18.765625 33.722656 C 18.480469 33.4375 18.222656 33.125 18 32.789062 C 17.773438 32.453125 17.582031 32.097656 17.429688 31.726562 C 17.273438 31.351562 17.15625 30.964844 17.078125 30.570312 C 17 30.171875 16.957031 29.773438 16.957031 29.367188 C 16.957031 28.964844 17 28.5625 17.078125 28.164062 C 17.15625 27.769531 17.273438 27.382812 17.429688 27.011719 C 17.582031 26.636719 17.773438 26.28125 18 25.945312 C 18.222656 25.609375 18.480469 25.300781 18.765625 25.011719 C 19.535156 24.246094 20.128906 23.359375 20.542969 22.351562 C 20.960938 21.347656 21.164062 20.300781 21.160156 19.210938 C 21.160156 18.808594 21.199219 18.410156 21.28125 18.011719 C 21.359375 17.617188 21.476562 17.234375 21.632812 16.859375 C 21.785156 16.488281 21.976562 16.136719 22.199219 15.800781 C 22.425781 15.464844 22.679688 15.15625 22.964844 14.871094 C 23.25 14.585938 23.5625 14.332031 23.898438 14.105469 C 24.234375 13.882812 24.585938 13.691406 24.960938 13.539062 C 25.332031 13.386719 25.714844 13.269531 26.113281 13.191406 C 26.507812 13.109375 26.90625 13.070312 27.3125 13.070312 C 28.398438 13.074219 29.441406 12.871094 30.445312 12.453125 C 31.449219 12.039062 32.335938 11.445312 33.101562 10.675781 C 33.386719 10.390625 33.699219 10.136719 34.035156 9.910156 C 34.371094 9.683594 34.726562 9.496094 35.097656 9.339844 C 35.472656 9.183594 35.859375 9.066406 36.253906 8.988281 C 36.652344 8.910156 37.050781 8.871094 37.457031 8.871094 C 37.859375 8.871094 38.261719 8.910156 38.65625 8.988281 C 39.054688 9.066406 39.441406 9.183594 39.8125 9.339844 C 40.1875 9.496094 40.542969 9.683594 40.878906 9.910156 C 41.214844 10.136719 41.523438 10.390625 41.808594 10.675781 C 42.570312 11.449219 43.449219 12.042969 44.449219 12.464844 C 45.445312 12.882812 46.484375 13.097656 47.570312 13.105469 C 47.972656 13.105469 48.371094 13.144531 48.765625 13.222656 C 49.160156 13.304688 49.542969 13.421875 49.917969 13.574219 C 50.289062 13.730469 50.640625 13.917969 50.976562 14.144531 C 51.3125 14.367188 51.621094 14.621094 51.90625 14.90625 C 52.191406 15.191406 52.445312 15.5 52.671875 15.835938 C 52.894531 16.171875 53.082031 16.523438 53.238281 16.894531 C 53.394531 17.269531 53.507812 17.652344 53.589844 18.046875 C 53.667969 18.441406 53.707031 18.839844 53.707031 19.242188 C 53.703125 20.332031 53.910156 21.378906 54.324219 22.386719 C 54.738281 23.390625 55.332031 24.277344 56.101562 25.046875 C 56.390625 25.332031 56.648438 25.640625 56.875 25.976562 C 57.101562 26.3125 57.289062 26.667969 57.445312 27.042969 C 57.601562 27.414062 57.71875 27.800781 57.800781 28.199219 C 57.878906 28.59375 57.917969 28.996094 57.917969 29.398438 C 57.917969 29.804688 57.878906 30.207031 57.800781 30.601562 C 57.71875 31 57.601562 31.386719 57.445312 31.757812 C 57.289062 32.132812 57.101562 32.488281 56.875 32.824219 C 56.648438 33.160156 56.390625 33.46875 56.101562 33.753906 C 55.339844 34.519531 54.753906 35.398438 54.34375 36.398438 C 53.933594 37.394531 53.726562 38.433594 53.730469 39.511719 C 53.730469 39.917969 53.691406 40.316406 53.613281 40.714844 C 53.53125 41.113281 53.414062 41.496094 53.261719 41.871094 C 53.105469 42.246094 52.917969 42.601562 52.691406 42.9375 C 52.46875 43.273438 52.210938 43.582031 51.925781 43.871094 C 51.640625 44.15625 51.328125 44.410156 50.992188 44.636719 C 50.65625 44.859375 50.300781 45.050781 49.925781 45.207031 C 49.554688 45.359375 49.167969 45.476562 48.769531 45.554688 C 48.375 45.636719 47.972656 45.675781 47.570312 45.675781 Z M 36.421875 57.910156 L 36.421875 63.351562 L 28.671875 64.875 L 31.644531 56.691406 C 31.691406 56.5625 31.710938 56.433594 31.707031 56.296875 C 31.699219 56.160156 31.667969 56.03125 31.613281 55.910156 C 31.554688 55.789062 31.476562 55.679688 31.375 55.589844 C 31.273438 55.496094 31.160156 55.429688 31.035156 55.382812 C 30.921875 55.339844 30.804688 55.320312 30.683594 55.320312 C 30.472656 55.328125 30.277344 55.390625 30.101562 55.511719 C 29.925781 55.636719 29.796875 55.796875 29.714844 55.992188 L 26.320312 65.332031 L 20.167969 66.53125 L 27.976562 47.765625 C 29.40625 47.917969 30.632812 48.503906 31.652344 49.515625 C 32.035156 49.898438 32.449219 50.238281 32.894531 50.539062 C 33.34375 50.839844 33.816406 51.089844 34.3125 51.296875 C 34.808594 51.503906 35.324219 51.660156 35.851562 51.765625 C 36.378906 51.871094 36.914062 51.921875 37.449219 51.921875 C 37.988281 51.921875 38.523438 51.871094 39.050781 51.765625 C 39.578125 51.660156 40.089844 51.503906 40.589844 51.296875 C 41.085938 51.089844 41.558594 50.839844 42.003906 50.539062 C 42.453125 50.238281 42.867188 49.898438 43.246094 49.515625 C 44.265625 48.503906 45.488281 47.921875 46.914062 47.765625 L 54.730469 66.53125 L 48.570312 65.332031 L 45.175781 55.992188 C 45.101562 55.792969 44.976562 55.628906 44.800781 55.503906 C 44.625 55.382812 44.429688 55.320312 44.214844 55.320312 C 44.09375 55.320312 43.972656 55.34375 43.855469 55.382812 C 43.730469 55.429688 43.617188 55.496094 43.515625 55.589844 C 43.414062 55.679688 43.335938 55.789062 43.277344 55.910156 C 43.222656 56.03125 43.191406 56.160156 43.183594 56.296875 C 43.179688 56.433594 43.199219 56.5625 43.246094 56.691406 L 46.21875 64.875 L 38.480469 63.363281 L 38.480469 57.921875 C 38.496094 57.773438 38.480469 57.632812 38.433594 57.492188 C 38.386719 57.355469 38.316406 57.230469 38.21875 57.121094 C 38.121094 57.011719 38.003906 56.929688 37.871094 56.871094 C 37.738281 56.808594 37.597656 56.78125 37.449219 56.78125 C 37.304688 56.78125 37.164062 56.808594 37.03125 56.871094 C 36.898438 56.929688 36.78125 57.011719 36.683594 57.121094 C 36.585938 57.230469 36.511719 57.355469 36.46875 57.492188 C 36.421875 57.632812 36.40625 57.773438 36.421875 57.921875 Z M 36.421875 57.910156 " fill-opacity="1" fill-rule="nonzero"/></g><path fill="#004aad" d="M 44.085938 22.824219 C 43.925781 22.730469 43.75 22.683594 43.5625 22.683594 C 43.175781 22.683594 42.878906 22.851562 42.679688 23.183594 L 35.769531 34.789062 L 30.890625 28.628906 C 30.683594 28.371094 30.417969 28.242188 30.085938 28.246094 C 29.851562 28.242188 29.640625 28.316406 29.457031 28.464844 C 29.347656 28.546875 29.261719 28.652344 29.195312 28.769531 C 29.128906 28.890625 29.085938 29.019531 29.070312 29.152344 C 29.054688 29.289062 29.066406 29.421875 29.105469 29.554688 C 29.144531 29.6875 29.207031 29.804688 29.292969 29.910156 L 35.082031 37.214844 C 35.292969 37.464844 35.5625 37.589844 35.886719 37.597656 L 35.953125 37.597656 C 36.316406 37.574219 36.585938 37.40625 36.769531 37.097656 L 44.445312 24.273438 C 44.585938 24.023438 44.621094 23.757812 44.550781 23.476562 C 44.484375 23.199219 44.328125 22.980469 44.085938 22.824219 Z M 44.085938 22.824219 " fill-opacity="1" fill-rule="nonzero"/><path fill="#004aad" d="M 37.445312 14.476562 C 36.464844 14.476562 35.496094 14.570312 34.535156 14.761719 C 33.574219 14.953125 32.644531 15.238281 31.738281 15.613281 C 30.832031 15.984375 29.972656 16.445312 29.160156 16.988281 C 28.34375 17.535156 27.59375 18.152344 26.898438 18.84375 C 26.207031 19.535156 25.589844 20.289062 25.046875 21.105469 C 24.5 21.917969 24.042969 22.777344 23.667969 23.683594 C 23.292969 24.585938 23.007812 25.519531 22.820312 26.480469 C 22.628906 27.441406 22.53125 28.410156 22.53125 29.390625 C 22.53125 30.367188 22.628906 31.339844 22.820312 32.300781 C 23.007812 33.257812 23.292969 34.191406 23.667969 35.097656 C 24.042969 36 24.5 36.859375 25.046875 37.675781 C 25.589844 38.488281 26.207031 39.242188 26.898438 39.933594 C 27.59375 40.628906 28.34375 41.246094 29.160156 41.789062 C 29.972656 42.332031 30.832031 42.792969 31.738281 43.167969 C 32.644531 43.542969 33.574219 43.824219 34.535156 44.015625 C 35.496094 44.207031 36.464844 44.304688 37.445312 44.304688 C 38.425781 44.304688 39.394531 44.207031 40.355469 44.015625 C 41.316406 43.824219 42.246094 43.542969 43.152344 43.167969 C 44.058594 42.792969 44.917969 42.332031 45.730469 41.789062 C 46.542969 41.246094 47.296875 40.628906 47.992188 39.933594 C 48.683594 39.242188 49.300781 38.488281 49.84375 37.675781 C 50.390625 36.859375 50.847656 36 51.222656 35.097656 C 51.597656 34.191406 51.882812 33.257812 52.070312 32.300781 C 52.261719 31.339844 52.359375 30.367188 52.359375 29.390625 C 52.355469 28.410156 52.261719 27.441406 52.070312 26.480469 C 51.875 25.523438 51.59375 24.589844 51.21875 23.6875 C 50.84375 22.78125 50.382812 21.921875 49.839844 21.109375 C 49.292969 20.296875 48.675781 19.542969 47.984375 18.851562 C 47.292969 18.160156 46.539062 17.539062 45.726562 16.996094 C 44.910156 16.453125 44.054688 15.992188 43.148438 15.617188 C 42.246094 15.242188 41.3125 14.957031 40.351562 14.765625 C 39.394531 14.574219 38.425781 14.476562 37.445312 14.476562 Z M 37.445312 42.246094 C 36.601562 42.246094 35.765625 42.164062 34.9375 42 C 34.109375 41.832031 33.304688 41.589844 32.527344 41.265625 C 31.746094 40.945312 31.003906 40.546875 30.304688 40.078125 C 29.601562 39.609375 28.953125 39.078125 28.355469 38.480469 C 27.757812 37.882812 27.226562 37.234375 26.757812 36.53125 C 26.285156 35.828125 25.890625 35.089844 25.566406 34.308594 C 25.246094 33.53125 25 32.726562 24.835938 31.898438 C 24.671875 31.070312 24.589844 30.234375 24.589844 29.390625 C 24.589844 28.546875 24.671875 27.710938 24.835938 26.882812 C 25 26.054688 25.246094 25.25 25.566406 24.46875 C 25.890625 23.691406 26.285156 22.949219 26.757812 22.246094 C 27.226562 21.546875 27.757812 20.894531 28.355469 20.300781 C 28.953125 19.703125 29.601562 19.167969 30.304688 18.699219 C 31.003906 18.230469 31.746094 17.835938 32.527344 17.511719 C 33.304688 17.1875 34.109375 16.945312 34.9375 16.78125 C 35.765625 16.617188 36.601562 16.535156 37.445312 16.535156 C 38.289062 16.535156 39.125 16.617188 39.953125 16.78125 C 40.78125 16.945312 41.585938 17.1875 42.363281 17.511719 C 43.144531 17.835938 43.886719 18.230469 44.585938 18.699219 C 45.289062 19.167969 45.9375 19.703125 46.535156 20.300781 C 47.132812 20.894531 47.664062 21.546875 48.132812 22.246094 C 48.601562 22.949219 49 23.691406 49.324219 24.46875 C 49.644531 25.25 49.890625 26.054688 50.054688 26.882812 C 50.21875 27.710938 50.300781 28.546875 50.300781 29.390625 C 50.300781 30.234375 50.214844 31.070312 50.050781 31.894531 C 49.886719 32.722656 49.640625 33.527344 49.316406 34.304688 C 48.992188 35.085938 48.597656 35.824219 48.128906 36.527344 C 47.660156 37.226562 47.125 37.878906 46.53125 38.472656 C 45.933594 39.070312 45.285156 39.601562 44.582031 40.070312 C 43.882812 40.542969 43.140625 40.9375 42.363281 41.261719 C 41.582031 41.585938 40.777344 41.828125 39.953125 41.996094 C 39.125 42.160156 38.289062 42.242188 37.445312 42.246094 Z M 37.445312 42.246094 " fill-opacity="1" fill-rule="nonzero"/></svg>