<?xml version="1.0" encoding="utf-8"?>
<!-- Generator: Adobe Illustrator 13.0.0, SVG Export Plug-In . SVG Version: 6.00 Build 14948)  -->
<!DOCTYPE svg PUBLIC "-//W3C//DTD SVG 1.1//EN" "http://www.w3.org/Graphics/SVG/1.1/DTD/svg11.dtd">
<svg version="1.1" id="Layer_1" xmlns="http://www.w3.org/2000/svg" xmlns:xlink="http://www.w3.org/1999/xlink" x="0px" y="0px"
	 width="100px" height="70px" viewBox="0 0 100 70" enable-background="new 0 0 100 70" xml:space="preserve">
<g>
	<path d="M71.405,16.131c-7.502,0-13.999,4.378-17.071,10.713c-1.264,1.977-2.053,4.913-2.053,8.245
		c0,3.333,0.789,6.268,2.053,8.247c3.072,6.336,9.569,10.713,17.071,10.713c10.451,0,18.957-8.505,18.957-18.958
		S81.856,16.131,71.405,16.131z M85.179,35.381l-1.649,0.692c0.298,0.711-0.63,1.878-1.387,2.602l-2.315-0.378
		c-0.295-0.138-1.523-0.79-1.849-2.264l-1.748,0.39c0.585,2.63,2.933,3.539,3.032,3.577l0.082,0.031l8.049,1.315
		c-0.222,0.564-0.474,1.114-0.751,1.646c-0.753-0.691-1.742-1.366-2.648-1.221c-0.331,0.053-0.938,0.264-1.267,1.086
		c-0.709,1.768-1.091,2.782-1.095,2.79l1.676,0.63c0.003-0.01,0.372-0.991,1.061-2.713c0.293,0.103,0.827,0.516,1.333,1.019
		c-1.188,1.784-2.697,3.332-4.449,4.562c-0.677-0.504-1.524-1.396-1.62-1.983c0.923-0.321,1.468-0.662,1.734-1.129
		c0.459-0.791,0.091-1.637-0.179-2.251c-0.085-0.19-0.217-0.494-0.243-0.649c0.054-0.032,0.161-0.081,0.357-0.131l-0.431-1.734
		c-0.787,0.195-1.295,0.544-1.553,1.067c-0.38,0.772-0.041,1.541,0.23,2.162c0.082,0.188,0.212,0.487,0.24,0.646
		c-0.395,0.287-1.649,0.618-2.697,0.861c0.431-1.156,0.196-2.146,0.141-2.344l-0.776-2.967l-1.73,0.453l0.778,2.973l0.012,0.04
		c0.005,0.013,0.412,1.396-1.195,2.553c-1.96,1.409-2.216,4.241-2.222,5.531c-0.231,0.012-0.464,0.018-0.697,0.018
		c-5.354,0-10.143-2.463-13.291-6.313c0.051,0.003,0.106,0.007,0.16,0.007c3.359,0,5.992-4.772,5.992-10.865
		s-2.633-10.863-5.992-10.863c-0.054,0-0.109,0.004-0.16,0.006c3.15-3.85,7.938-6.313,13.291-6.313c2.122,0,4.158,0.389,6.038,1.097
		c-1.185,0.656-2.591,1.53-3.379,2.36l-2.882-1.021l-0.599,1.688l2.752,0.973c-0.046,1.528,1.273,2.993,1.452,3.185l1.308-1.222
		c-0.452-0.481-1.185-1.607-0.917-2.147c0.285-0.579,2.38-1.896,4.325-2.879c5.395,2.899,9.071,8.597,9.071,15.135
		c0,1.57-0.213,3.092-0.61,4.537l-3.707-0.605C85.041,38.034,85.729,36.691,85.179,35.381z M75.256,48.253
		c0.263-0.07,0.673-0.158,1.11-0.252c0.569-0.126,1.083-0.24,1.545-0.354c0.258,1.039,1.119,1.952,1.738,2.498
		c-1.755,0.966-3.695,1.633-5.754,1.934C73.924,51.062,74.133,49.171,75.256,48.253z M55.927,42.522
		c-0.159-0.24-0.314-0.504-0.461-0.79c-0.49-0.957-0.859-2.093-1.096-3.336c0.081,0.115,0.163,0.223,0.251,0.324
		c0.437,0.498,0.977,0.785,1.574,0.785c1.536,0,2.694-1.898,2.694-4.417c0-2.517-1.156-4.415-2.694-4.415
		c-0.598,0-1.138,0.287-1.574,0.785c-0.088,0.099-0.17,0.208-0.251,0.323c0.236-1.243,0.605-2.378,1.096-3.336
		c0.146-0.286,0.299-0.551,0.461-0.789c0.707-1.054,1.535-1.644,2.348-1.644c0.993,0,2.017,0.887,2.809,2.433
		c0.896,1.759,1.396,4.118,1.396,6.642c0,2.524-0.499,4.882-1.396,6.643c-0.792,1.545-1.815,2.431-2.809,2.431
		C57.465,44.165,56.634,43.577,55.927,42.522z M55.286,35.089c0-1.694,0.684-2.627,0.908-2.627c0.224,0,0.907,0.933,0.907,2.627
		c0,1.695-0.682,2.626-0.907,2.626C55.97,37.716,55.286,36.787,55.286,35.089z"/>
	<path d="M58.887,49.851c-5.181-3.395-8.274-8.912-8.274-14.76c0-5.848,3.094-11.366,8.274-14.76
		c0.199-0.13,0.337-0.334,0.387-0.566c0.047-0.232,0.003-0.474-0.129-0.672l-2.102-3.207c-0.271-0.413-0.824-0.53-1.236-0.258
		c-2.353,1.542-4.384,3.424-6.054,5.605L35.531,5.429c-0.309-0.342-0.827-0.395-1.197-0.12c-0.371,0.273-0.471,0.784-0.234,1.18
		l9.934,16.534l-12.538-8.037c-0.387-0.249-0.902-0.162-1.187,0.201c-0.286,0.364-0.246,0.883,0.088,1.201l15.036,14.294
		c-0.019,0.098-0.039,0.196-0.057,0.295l-14.208-4.789c-0.434-0.146-0.908,0.059-1.099,0.476c-0.19,0.416-0.036,0.91,0.358,1.142
		l8.114,4.793H13.059c-0.494,0-0.895,0.401-0.895,0.894v3.194c0,0.495,0.401,0.896,0.895,0.896h24.69l-7.322,4.325
		c-0.394,0.233-0.549,0.728-0.358,1.144c0.19,0.418,0.665,0.622,1.099,0.476l14.129-4.763c0.042,0.247,0.087,0.492,0.135,0.734
		L30.396,53.794c-0.334,0.319-0.373,0.839-0.089,1.202c0.284,0.362,0.799,0.448,1.188,0.199l12.538-8.036l-9.934,16.535
		c-0.237,0.396-0.135,0.906,0.234,1.179c0.159,0.118,0.345,0.176,0.531,0.176c0.247,0,0.491-0.1,0.666-0.296l14.222-15.804
		c1.669,2.183,3.7,4.064,6.054,5.606c0.413,0.271,0.967,0.156,1.237-0.259l2.102-3.208c0.129-0.197,0.175-0.439,0.126-0.673
		C59.224,50.185,59.086,49.981,58.887,49.851z M50.561,47.021c-0.155-0.225-0.408-0.365-0.679-0.383
		c-0.272-0.018-0.539,0.091-0.722,0.293l-8.736,9.71l7.11-11.836c0.215-0.355,0.155-0.814-0.142-1.102
		c-0.173-0.167-0.398-0.254-0.625-0.254c-0.167,0-0.335,0.046-0.482,0.143l-7.86,5.036l8.602-8.178
		c0.228-0.219,0.326-0.538,0.255-0.846c-0.156-0.695-0.279-1.413-0.363-2.139c-0.032-0.267-0.182-0.508-0.41-0.651
		c-0.229-0.145-0.51-0.179-0.765-0.094l-7.05,2.376l2.78-1.642c0.347-0.205,0.515-0.617,0.408-1.007
		c-0.107-0.389-0.459-0.658-0.863-0.658H13.952v-1.406h27.859c0.404,0,0.757-0.271,0.864-0.657c0.106-0.39-0.062-0.802-0.408-1.006
		l-3.571-2.111l7.106,2.396c0.252,0.085,0.53,0.054,0.756-0.087s0.378-0.375,0.416-0.638c0.08-0.576,0.185-1.151,0.31-1.708
		c0.069-0.308-0.029-0.627-0.255-0.845l-8.602-8.178l7.86,5.038c0.351,0.224,0.808,0.179,1.107-0.111
		c0.297-0.29,0.357-0.746,0.142-1.102l-7.11-11.836l8.736,9.709c0.184,0.202,0.45,0.312,0.722,0.294
		c0.274-0.016,0.523-0.158,0.679-0.383c1.485-2.141,3.327-4,5.485-5.533l1.123,1.711c-5.244,3.757-8.346,9.583-8.346,15.751
		c0,6.169,3.102,11.996,8.346,15.752l-1.123,1.712C53.888,51.019,52.046,49.162,50.561,47.021z"/>
</g>
</svg>
