<?xml version="1.0" encoding="utf-8"?>
<!-- Generator: Adobe Illustrator 13.0.0, SVG Export Plug-In . SVG Version: 6.00 Build 14948)  -->
<!DOCTYPE svg PUBLIC "-//W3C//DTD SVG 1.1//EN" "http://www.w3.org/Graphics/SVG/1.1/DTD/svg11.dtd">
<svg version="1.1" id="Layer_1" xmlns="http://www.w3.org/2000/svg" xmlns:xlink="http://www.w3.org/1999/xlink" x="0px" y="0px"
	 width="100px" height="70px" viewBox="0 0 100 70" enable-background="new 0 0 100 70" xml:space="preserve">
<g>
	<path d="M50.984,8.473c-14.676,0-26.617,11.94-26.617,26.617c0,14.677,11.94,26.618,26.617,26.618
		c14.678,0,26.618-11.94,26.618-26.618C77.603,20.414,65.662,8.473,50.984,8.473z M68.475,44.627l-2.047,0.256
		c0.12,0.964,0.517,1.836,1.038,2.601c-1.011,0.5-2.634,0.7-3.63,0.702l0.001,2.063c0.367,0,3.185-0.039,5.003-1.18
		c0.505,0.473,1.015,0.866,1.454,1.175c-2.96,3.764-6.996,6.643-11.639,8.174c-0.592-0.603-1.606-1.807-1.834-3.175
		c-0.201-1.208,1.752-3.246,3.202-4.308l-1.215-1.667c-0.407,0.297-3.588,2.688-4.015,5.256l-3.808,0.586
		c-0.618-0.654-1.85-2.151-1.144-3.033l-1.611-1.289c-1.743,2.18,0.26,4.921,1.719,6.197l0.361,0.316l4.73-0.729
		c0.337,0.971,0.885,1.813,1.402,2.46c-1.756,0.4-3.583,0.612-5.46,0.612c-3.776,0-7.355-0.857-10.554-2.387l3.007-1.908
		l0.127-0.222c0.08-0.14,1.92-3.441-0.501-6.347l-1.585,1.32c1.242,1.491,0.655,3.212,0.395,3.798l-3.525,2.236
		c-2.857-1.723-5.336-4.009-7.282-6.705l3.085,0.237c0.361,0.082,0.815,0.14,1.312,0.14c1.445,0,3.248-0.49,4.149-2.293
		l-1.845-0.923c-0.389,0.778-1.129,1.055-1.801,1.131c0.594-1.643,0.292-5.117-3.121-7.13l-1.048,1.776
		c1.514,0.894,2.063,2.076,2.255,2.909c0.223,0.967,0.027,1.69-0.066,1.831c0.097-0.147,0.48-0.333,0.867-0.164l-0.305,0.696
		l-0.071-0.018l-4.815-0.371c-2.054-3.588-3.23-7.74-3.23-12.163c0-1.228,0.092-2.436,0.267-3.616
		c0.461,0.07,1.098,0.142,1.853,0.157c0.286,0.682,0.962,2.187,2.124,4.179l1.782-1.04c-0.804-1.377-1.363-2.513-1.707-3.265
		c0.493-0.067,1.003-0.164,1.523-0.302c2.364-0.629,3.367,0.336,3.409,0.377l-0.017-0.019l1.528-1.386
		c-0.072-0.08-1.807-1.936-5.45-0.967c-1.908,0.507-3.712,0.371-4.655,0.235c1.132-4.796,3.675-9.052,7.165-12.306
		c-0.047,0.944-0.06,2.061,0.046,3.014c0.437,3.935,4.885,4.637,5.074,4.665l0.302-2.041c-0.031-0.004-3.062-0.479-3.326-2.851
		c-0.205-1.845,0.115-4.577,0.118-4.604l-0.023-0.002c2.068-1.525,4.383-2.734,6.873-3.555c0.593,0.601,1.604,1.799,1.833,3.175
		c0.254,1.525-1.723,2.339-1.803,2.371l-0.715,0.28l0.285,3.418l2.056-0.171l-0.163-1.953c1.017-0.59,2.208-1.686,2.399-3.231
		l3.776-0.581c0.621,0.653,1.854,2.145,1.143,3.033l1.611,1.289c1.743-2.18-0.26-4.921-1.719-6.197l-0.361-0.316l-4.73,0.728
		c-0.338-0.97-0.885-1.812-1.403-2.459c1.756-0.4,3.583-0.613,5.459-0.613c3.776,0,7.356,0.858,10.556,2.387l-3.008,1.908
		l-0.127,0.222c-0.08,0.139-1.92,3.441,0.501,6.346l1.585-1.321c-1.242-1.49-0.654-3.211-0.395-3.797l3.525-2.236
		c2.856,1.722,5.336,4.009,7.282,6.705l-3.085-0.237c-1.413-0.322-4.25-0.269-5.461,2.153l1.846,0.922
		c0.805-1.609,3.111-1.075,3.205-1.052l0.084,0.021l1.023,0.079c0.605,1.576,0.971,3.192,0.825,3.728
		c-0.041-0.004-0.098-0.013-0.171-0.032l-0.5,2.002c0.268,0.067,0.51,0.095,0.727,0.095c0.803,0,1.271-0.389,1.499-0.661
		c0.909-1.081,0.463-3.244-0.115-4.958l1.528,0.118c2.054,3.587,3.229,7.74,3.229,12.162c0,0.02-0.001,0.039-0.001,0.058
		c-0.929-0.801-2.223-1.51-3.898-1.51c-0.296,0-0.564,0.003-0.81,0.006c-0.552,0.007-1.174,0.015-1.357-0.054
		c-0.177-0.275-0.306-1.563-0.409-2.603l-2.053,0.205c0.192,1.932,0.299,2.997,0.86,3.701c0.672,0.843,1.643,0.83,2.985,0.813
		c0.236-0.003,0.497-0.006,0.783-0.006c0.031,0,0.061,0.002,0.092,0.003c0.201,0.671,0.361,1.662,0.107,2.224
		c-0.085,0.188-0.206,0.3-0.406,0.375c-1.869,0.701-2.824,0.73-2.822,0.73v2.063c0.128,0,1.313-0.024,3.546-0.862
		c0.715-0.268,1.256-0.773,1.565-1.463c0.314-0.699,0.349-1.501,0.277-2.211c0.687,0.533,1.145,1.18,1.357,1.521
		c-0.468,3.838-1.825,7.404-3.858,10.488C70.283,47.722,68.679,46.258,68.475,44.627z"/>
	<path d="M50.984,21.722c-7.371,0-13.369,5.997-13.369,13.369s5.998,13.37,13.369,13.37c7.372,0,13.369-5.998,13.369-13.37
		S58.356,21.722,50.984,21.722z M39.679,35.09c0-2.317,0.702-4.473,1.902-6.269c-0.001,0.086-0.001,0.172,0.003,0.258
		c0.099,1.844,1.623,3.289,3.468,3.289c0.063,0,0.125-0.002,0.189-0.005c0.456-0.024,0.886-0.137,1.277-0.319
		c-0.594,0.868-0.943,1.917-0.943,3.046c0,2.983,2.426,5.409,5.408,5.409c2.983,0,5.409-2.426,5.409-5.409
		c0-2.982-2.426-5.408-5.409-5.408c-1.044,0-2.02,0.298-2.847,0.813c0.278-0.533,0.422-1.145,0.388-1.788
		c-0.098-1.819-1.58-3.249-3.392-3.287c1.708-1.038,3.711-1.636,5.852-1.636c6.234,0,11.307,5.072,11.307,11.306
		s-5.072,11.306-11.307,11.306C44.751,46.396,39.679,41.324,39.679,35.09z M47.64,35.09c0-1.844,1.5-3.345,3.345-3.345
		c1.845,0,3.346,1.501,3.346,3.345c0,1.845-1.501,3.345-3.346,3.345C49.14,38.436,47.64,36.936,47.64,35.09z M44.979,27.484
		c0.026-0.001,0.052-0.002,0.078-0.002c0.749,0,1.367,0.587,1.408,1.336c0.042,0.777-0.557,1.443-1.334,1.485
		c-0.782,0.042-1.444-0.559-1.486-1.334c-0.02-0.376,0.107-0.738,0.359-1.019C44.256,27.67,44.603,27.504,44.979,27.484z"/>
</g>
</svg>
