<?xml version="1.0" encoding="utf-8"?>
<!-- Generator: Adobe Illustrator 13.0.0, SVG Export Plug-In . SVG Version: 6.00 Build 14948)  -->
<!DOCTYPE svg PUBLIC "-//W3C//DTD SVG 1.1//EN" "http://www.w3.org/Graphics/SVG/1.1/DTD/svg11.dtd">
<svg version="1.1" id="Layer_1" xmlns="http://www.w3.org/2000/svg" xmlns:xlink="http://www.w3.org/1999/xlink" x="0px" y="0px"
	 width="100px" height="70px" viewBox="0 0 100 70" enable-background="new 0 0 100 70" xml:space="preserve">
<g>
	<path d="M82.577,34.357c-0.166-0.159-4.146-3.941-10.178-7.778c-5.607-3.566-14.094-7.818-22.677-7.818
		c-1.139,0-2.268,0.075-3.357,0.222c-9.411,1.271-16.345,5.511-20.504,8.843c-4.516,3.618-6.79,6.915-6.885,7.053l-0.422,0.619
		l0.408,0.628c0.598,0.921,2.89,4.188,7.288,7.574c5.701,4.389,12.469,7.138,20.116,8.171c1.061,0.144,2.161,0.217,3.271,0.217
		c0.001,0,0.001,0,0.002,0c8.604,0,17.117-4.394,22.742-8.08c6.049-3.964,10.041-7.871,10.208-8.036l0.826-0.813L82.577,34.357z
		 M60.696,47.576c3.42-2.95,5.588-7.313,5.588-12.172c0-4.914-2.217-9.319-5.703-12.27c9.184,3.371,16.993,9.798,19.555,12.048
		C77.598,37.48,69.838,44.068,60.696,47.576z M21.291,35.539c1.706-2.179,8.182-9.627,19.294-13.001
		c-3.913,2.935-6.45,7.609-6.45,12.866c0,5.362,2.639,10.118,6.686,13.04C29.076,45.169,23.004,37.898,21.291,35.539z
		 M36.386,35.404c0-7.623,6.201-13.824,13.824-13.824c7.622,0,13.823,6.201,13.823,13.824S57.832,49.228,50.21,49.228
		C42.587,49.228,36.386,43.026,36.386,35.404z"/>
	<path d="M61.301,31.888h-6.912v-6.912h-7.072v6.912h-6.912v7.073h6.912v6.911h7.072v-6.911h6.912V31.888z M59.051,36.71h-6.912
		v6.912h-2.572V36.71h-6.912v-2.571h6.912v-6.912h2.572v6.912h6.912V36.71z"/>
	<polygon points="24.166,8.69 37.532,8.69 37.532,6.44 21.916,6.44 21.916,22.056 24.166,22.056 	"/>
	<polygon points="77.539,22.056 79.79,22.056 79.79,6.44 64.174,6.44 64.174,8.69 77.539,8.69 	"/>
	<polygon points="24.166,48.793 21.916,48.793 21.916,64.409 37.532,64.409 37.532,62.158 24.166,62.158 	"/>
	<polygon points="77.539,62.158 64.174,62.158 64.174,64.409 79.79,64.409 79.79,48.793 77.539,48.793 	"/>
</g>
</svg>
