<?xml version="1.0" encoding="utf-8"?>
<!-- Generator: Adobe Illustrator 13.0.0, SVG Export Plug-In . SVG Version: 6.00 Build 14948)  -->
<!DOCTYPE svg PUBLIC "-//W3C//DTD SVG 1.1//EN" "http://www.w3.org/Graphics/SVG/1.1/DTD/svg11.dtd">
<svg version="1.1" id="Layer_1" xmlns="http://www.w3.org/2000/svg" xmlns:xlink="http://www.w3.org/1999/xlink" x="0px" y="0px"
	 width="100px" height="70px" viewBox="0 0 100 70" enable-background="new 0 0 100 70" xml:space="preserve">
<g>
	<path d="M78.356,27.706c-2.93-1.75-6.277-2.675-9.68-2.675c-1.57,0-3.134,0.197-4.651,0.58v-0.109v-1.557h14.649v-6.182H54.985
		v-7.407h-8.615v7.407H22.681v6.182h14.649V25.5v0.109c-1.517-0.382-3.081-0.58-4.651-0.58c-3.402,0-6.75,0.925-9.679,2.675
		c-8.912,5.325-11.871,16.93-6.596,25.871l0.522,0.884l1.814-1.084c0.02,0.029,0.041,0.058,0.06,0.086
		c3.118,4.551,8.365,7.34,13.935,7.34c0,0,0,0,0,0c3.028,0,6.007-0.824,8.615-2.382c7.68-4.588,10.386-14.368,6.322-22.207
		c-0.001-0.001-0.001-0.003-0.002-0.004h0.009h5.999h0.009c-0.001,0.001-0.001,0.003-0.002,0.004
		c-4.064,7.84-1.358,17.619,6.321,22.207c2.607,1.559,5.587,2.382,8.615,2.382c5.568,0,10.816-2.788,13.935-7.34
		c0.02-0.028,0.04-0.057,0.06-0.086l1.814,1.084l0.521-0.884C90.227,44.636,87.269,33.03,78.356,27.706z M81.926,50.585
		l-0.521,0.885l-0.047,0.081c-0.176,0.295-0.362,0.582-0.559,0.862c-2.748,3.938-7.323,6.347-12.178,6.347
		c-2.66,0-5.277-0.724-7.568-2.093c-6.712-4.011-9.1-12.535-5.611-19.404c0.153-0.303,0.317-0.603,0.494-0.898l0.568-0.933
		l0.016-0.025l-1.534-0.917v-0.08v-0.378c0.16-0.219,0.325-0.433,0.494-0.643c1.738-2.155,3.984-3.841,6.504-4.927
		c0.336-0.145,0.677-0.279,1.021-0.402c0.337-0.12,0.677-0.23,1.021-0.329c1.498-0.43,3.062-0.658,4.651-0.658
		c3.034,0,6.019,0.825,8.632,2.386c7.654,4.573,10.387,14.34,6.379,22.179L81.926,50.585z M32.735,58.76
		c-4.854,0-9.429-2.408-12.178-6.348c-0.196-0.28-0.383-0.567-0.56-0.863l-0.567-0.964l-1.762,1.053
		c-4.007-7.839-1.275-17.606,6.379-22.179c2.613-1.561,5.598-2.386,8.631-2.386c1.59,0,3.154,0.228,4.651,0.658
		c0.344,0.099,0.685,0.209,1.021,0.329c0.345,0.123,0.686,0.257,1.021,0.402c2.52,1.086,4.766,2.772,6.504,4.927
		c0.169,0.21,0.334,0.424,0.494,0.643v0.378v0.08l-1.534,0.917l0.016,0.025l0.567,0.932c0.177,0.296,0.341,0.596,0.496,0.899
		c3.488,6.87,1.1,15.395-5.612,19.404C38.012,58.036,35.395,58.76,32.735,58.76z M39.373,26.136v-4.234H24.723v-2.097h21.647V30.7
		v0.156c-1.315-1.371-2.833-2.543-4.505-3.463c-0.803-0.442-1.637-0.823-2.493-1.143V26.136z M76.633,21.902H61.983v4.234v0.113
		c-0.855,0.321-1.689,0.701-2.492,1.143c-1.672,0.921-3.189,2.093-4.506,3.464V30.7V19.805h21.647V21.902z M52.323,34.167h-3.29
		h-0.121h-0.5v-0.777l0,0v-0.188v-8.846c0.659,0.409,1.435,0.646,2.266,0.646c0.83,0,1.606-0.237,2.265-0.646v8.846v0.188l0,0v0.777
		h-0.499H52.323z M48.601,19.805c0.183-0.423,0.492-0.778,0.878-1.021c0.348-0.219,0.759-0.348,1.2-0.348
		c0.44,0,0.851,0.129,1.198,0.348c0.387,0.243,0.695,0.598,0.878,1.021c0.119,0.274,0.185,0.576,0.185,0.893
		c0,1.247-1.014,2.262-2.261,2.262c-1.248,0-2.262-1.015-2.262-2.262C48.417,20.381,48.483,20.079,48.601,19.805z M52.943,17.041
		c-0.658-0.41-1.435-0.647-2.265-0.647c-0.831,0-1.607,0.237-2.266,0.647v-4.643h4.531V17.041z"/>
	<path d="M78.432,41.491c-0.659-2.617-2.296-4.819-4.607-6.2c-1.563-0.934-3.348-1.427-5.162-1.427c-1.634,0-3.222,0.401-4.637,1.13
		c-0.26,0.134-0.515,0.28-0.763,0.437c-1.325,0.834-2.459,1.972-3.281,3.348c-1.381,2.312-1.778,5.025-1.119,7.644
		c0.66,2.617,2.296,4.818,4.607,6.199c1.563,0.934,3.348,1.428,5.162,1.428c3.543,0,6.87-1.884,8.681-4.916
		C78.694,46.822,79.091,44.108,78.432,41.491z M64.517,50.869c-1.843-1.101-3.147-2.857-3.674-4.945
		c-0.526-2.089-0.21-4.254,0.892-6.097c1.444-2.419,4.1-3.921,6.928-3.921c1.446,0,2.869,0.394,4.115,1.138
		c1.843,1.102,3.147,2.857,3.674,4.946c0.526,2.088,0.21,4.253-0.892,6.097c-1.444,2.418-4.099,3.92-6.928,3.92
		C67.186,52.007,65.763,51.613,64.517,50.869z"/>
	<path d="M59.279,38.36c0.177-0.296,0.366-0.579,0.566-0.852l-2.342-1.399l-1.048,1.753l2.341,1.398
		C58.942,38.956,59.103,38.655,59.279,38.36z"/>
	<path d="M78.015,49.554c-0.176,0.296-0.365,0.579-0.564,0.852l2.341,1.398l1.047-1.753l-2.342-1.399
		C78.351,48.957,78.191,49.258,78.015,49.554z"/>
	<path d="M75.096,35.155l1.398-2.342l-1.753-1.047l-1.399,2.342c0.306,0.146,0.606,0.305,0.902,0.481
		C74.54,34.765,74.822,34.955,75.096,35.155z"/>
	<path d="M79.492,45.14l2.729,0.041l0.03-2.042l-2.733-0.041C79.573,43.774,79.565,44.458,79.492,45.14z"/>
	<path d="M69.83,33.112l0.041-2.729l-2.042-0.03l-0.041,2.733C68.465,33.03,69.148,33.039,69.83,33.112z"/>
	<path d="M81.015,38.229l-0.994-1.783l-2.385,1.329c0.388,0.565,0.719,1.163,0.992,1.785L81.015,38.229z"/>
	<path d="M62.155,34.41l0.311,0.558c0.497-0.341,1.019-0.64,1.56-0.893c0.075-0.035,0.15-0.066,0.226-0.099l-0.226-0.404
		l-1.021-1.831l-0.085-0.152l-0.937,0.522l-0.847,0.472l0.449,0.806L62.155,34.41z"/>
	<path d="M38.094,35.431c-0.248-0.156-0.502-0.302-0.763-0.437c-1.415-0.729-3.002-1.13-4.636-1.13c-1.815,0-3.6,0.493-5.162,1.427
		c-4.778,2.854-6.344,9.064-3.489,13.843c1.812,3.032,5.138,4.916,8.681,4.916c1.814,0,3.6-0.494,5.162-1.428
		c2.312-1.381,3.948-3.582,4.607-6.199c0.66-2.618,0.262-5.332-1.119-7.644C40.553,37.403,39.418,36.266,38.094,35.431z
		 M40.514,45.924c-0.526,2.088-1.831,3.845-3.674,4.945c-1.246,0.744-2.669,1.138-4.115,1.138c-2.829,0-5.483-1.502-6.928-3.92
		c-2.277-3.812-1.029-8.766,2.782-11.043c1.246-0.744,2.669-1.138,4.115-1.138c2.829,0,5.483,1.502,6.928,3.921
		C40.723,41.67,41.04,43.835,40.514,45.924z"/>
	<path d="M42.56,39.261l2.341-1.398l-1.047-1.753l-2.342,1.399c0.2,0.272,0.39,0.556,0.566,0.852
		C42.254,38.655,42.414,38.956,42.56,39.261z"/>
	<path d="M22.86,48.651l-2.341,1.399l1.047,1.753l2.341-1.398c-0.2-0.272-0.389-0.556-0.565-0.852S23.006,48.957,22.86,48.651z"/>
	<path d="M27.112,34.589c0.296-0.177,0.597-0.336,0.902-0.481l-1.399-2.342l-1.753,1.047l1.399,2.342
		C26.534,34.955,26.817,34.765,27.112,34.589z"/>
	<path d="M21.837,43.098l-2.733,0.041l0.031,2.042l2.729-0.041C21.792,44.458,21.783,43.774,21.837,43.098z"/>
	<path d="M33.568,33.085l-0.041-2.733l-2.042,0.03l0.041,2.729C32.208,33.039,32.891,33.03,33.568,33.085z"/>
	<path d="M23.721,37.775l-2.384-1.329l-0.995,1.783l2.387,1.331C23.002,38.938,23.333,38.341,23.721,37.775z"/>
	<path d="M38.891,34.968l0.311-0.558l0.569-1.021l0.449-0.806l-0.848-0.472l-0.937-0.522l-0.084,0.152l-1.021,1.831l-0.226,0.404
		c0.076,0.033,0.151,0.064,0.226,0.099C37.872,34.328,38.394,34.627,38.891,34.968z"/>
</g>
</svg>
